<svg xmlns="http://www.w3.org/2000/svg" width="1600" height="1200" viewBox="0 0 1600 1200" role="img" aria-labelledby="title desc">
<title id="title">p4-harness 핵심 아이디어</title><desc id="desc">Claude Code와 Codex가 공통 규칙, 훅, Python CLI를 통해 p4.exe를 사용한다. 하나의 작업은 하나의 CL에 모으고, 기존 변경을 보존하며 현재 파일과 검증 결과를 연결한다.</desc>
<style>text {font-family:"Noto Sans KR","Malgun Gothic","Apple SD Gothic Neo",sans-serif;}</style>
<rect width="1600" height="1200" fill="#F5F8FB"/>
<text x="64" y="62" font-size="19" font-weight="700" fill="#147A70" text-anchor="start">01 / HARNESS CORE IDEAS</text>
<text x="64" y="134" font-size="60" font-weight="750" fill="#172D43" text-anchor="start">p4-harness</text>
<text x="65" y="190" font-size="31" font-weight="500" fill="#566A7E" text-anchor="start">에이전트가 달라도, P4 작업 규칙은 하나로.</text>
<rect x="1300" y="82" width="236" height="40" rx="20" fill="#FFFFFF"/>
<text x="1418.0" y="110" font-size="22" font-weight="600" fill="#147A70" text-anchor="middle">P4 작업 관리</text>
<polyline points="64.0,222.0 1536.0,222.0" fill="none" stroke="#D7E2EC" stroke-width="2" stroke-linejoin="round" stroke-linecap="round"/>
<text x="64" y="279" font-size="23" font-weight="650" fill="#566A7E" text-anchor="start">누가 작업하든</text>
<text x="446" y="279" font-size="23" font-weight="650" fill="#566A7E" text-anchor="start">같은 규칙으로 실행</text>
<text x="1126" y="279" font-size="23" font-weight="650" fill="#566A7E" text-anchor="start">같은 변경 단위로 관리</text>
<rect x="64" y="318" width="306" height="128" rx="24" fill="#FFFFFF" stroke="#D7E2EC" stroke-width="2"/>
<polyline points="102.675,356.8 92.925,368.5 102.675,380.2" fill="none" stroke="#B55F44" stroke-width="3" stroke-linejoin="round" stroke-linecap="round"/>
<polyline points="116.325,356.8 126.07499999999999,368.5 116.325,380.2" fill="none" stroke="#B55F44" stroke-width="3" stroke-linejoin="round" stroke-linecap="round"/>
<polyline points="112.425,353.875 106.575,383.125" fill="none" stroke="#B55F44" stroke-width="3" stroke-linejoin="round" stroke-linecap="round"/>
<text x="147" y="371" font-size="30" font-weight="700" fill="#172D43" text-anchor="start">Claude Code</text>
<text x="147" y="412" font-size="21" font-weight="450" fill="#566A7E" text-anchor="start">구현 · 수정 · 검토</text>
<rect x="64" y="472" width="306" height="128" rx="24" fill="#FFFFFF" stroke="#D7E2EC" stroke-width="2"/>
<polyline points="102.675,510.8 92.925,522.5 102.675,534.2" fill="none" stroke="#5368AF" stroke-width="3" stroke-linejoin="round" stroke-linecap="round"/>
<polyline points="116.325,510.8 126.07499999999999,522.5 116.325,534.2" fill="none" stroke="#5368AF" stroke-width="3" stroke-linejoin="round" stroke-linecap="round"/>
<polyline points="112.425,507.875 106.575,537.125" fill="none" stroke="#5368AF" stroke-width="3" stroke-linejoin="round" stroke-linecap="round"/>
<text x="147" y="525" font-size="30" font-weight="700" fill="#172D43" text-anchor="start">Codex</text>
<text x="147" y="566" font-size="21" font-weight="450" fill="#566A7E" text-anchor="start">구현 · 수정 · 검토</text>
<polyline points="374.0,382.0 408.0,382.0 408.0,451.0 440.0,451.0" fill="none" stroke="#147A70" stroke-width="4" stroke-linejoin="round" stroke-linecap="round"/>
<polygon points="440.00,451.00 429.59,456.96 429.59,445.04" fill="#147A70"/>
<polyline points="374.0,536.0 408.0,536.0 408.0,451.0" fill="none" stroke="#147A70" stroke-width="4" stroke-linejoin="round" stroke-linecap="round"/>
<text x="68" y="667" font-size="23" font-weight="500" fill="#566A7E" text-anchor="start">같은 워크스페이스에서는</text>
<text x="68" y="705" font-size="23" font-weight="500" fill="#566A7E" text-anchor="start">한 번에 한 작성자</text>
<rect x="446" y="306" width="594" height="484" rx="28" fill="#172D43"/>
<text x="482" y="364" font-size="34" font-weight="700" fill="#FFFFFF" text-anchor="start">공통 하네스</text>
<text x="482" y="403" font-size="25" font-weight="450" fill="#BBD1DF" text-anchor="start">규칙 · 훅 · Python CLI</text>
<rect x="480" y="443" width="58" height="40" rx="20" fill="#29475A"/>
<text x="509.0" y="471" font-size="19" font-weight="600" fill="#9EE1D5" text-anchor="middle">01</text>
<text x="558" y="467" font-size="27" font-weight="650" fill="#FFFFFF" text-anchor="start">범위·소유권 확인</text>
<text x="558" y="504" font-size="21" font-weight="400" fill="#BBD1DF" text-anchor="start">client · root · 작업 범위 확인</text>
<rect x="480" y="536" width="58" height="40" rx="20" fill="#29475A"/>
<text x="509.0" y="564" font-size="19" font-weight="600" fill="#9EE1D5" text-anchor="middle">02</text>
<text x="558" y="560" font-size="27" font-weight="650" fill="#FFFFFF" text-anchor="start">수정 전 파일 준비</text>
<text x="558" y="597" font-size="21" font-weight="400" fill="#BBD1DF" text-anchor="start">기존 파일 checkout · 새 파일 예약</text>
<rect x="480" y="629" width="58" height="40" rx="20" fill="#29475A"/>
<text x="509.0" y="657" font-size="19" font-weight="600" fill="#9EE1D5" text-anchor="middle">03</text>
<text x="558" y="653" font-size="27" font-weight="650" fill="#FFFFFF" text-anchor="start">현재 파일에 검증 연결</text>
<text x="558" y="690" font-size="21" font-weight="400" fill="#BBD1DF" text-anchor="start">snapshot · 필수 검사 결과 확인</text>
<rect x="480" y="726" width="526" height="43" rx="12" fill="#244657"/>
<text x="743" y="755" font-size="22" font-weight="650" fill="#B9F1E4" text-anchor="middle">p4.exe 실행</text>
<polyline points="1046.0,534.0 1107.0,534.0" fill="none" stroke="#147A70" stroke-width="4" stroke-linejoin="round" stroke-linecap="round"/>
<polygon points="1107.00,534.00 1096.59,539.96 1096.59,528.04" fill="#147A70"/>
<rect x="1124" y="306" width="412" height="484" rx="28" fill="#E4F2ED"/>
<polyline points="1162.0,352.0 1180.0,343.0 1198.0,352.0 1180.0,361.0 1162.0,352.0" fill="none" stroke="#147A70" stroke-width="3" stroke-linejoin="round" stroke-linecap="round"/>
<polyline points="1162.0,362.0 1180.0,371.0 1198.0,362.0" fill="none" stroke="#147A70" stroke-width="3" stroke-linejoin="round" stroke-linecap="round"/>
<polyline points="1162.0,371.0 1180.0,380.0 1198.0,371.0" fill="none" stroke="#147A70" stroke-width="3" stroke-linejoin="round" stroke-linecap="round"/>
<text x="1220" y="369" font-size="27" font-weight="750" fill="#147A70" text-anchor="start">작업 1개 = CL 1개</text>
<text x="1160" y="417" font-size="23" font-weight="500" fill="#172D43" text-anchor="start">하위 작업도 같은 CL 유지</text>
<rect x="1156" y="452" width="348" height="200" rx="20" fill="#FFFFFF"/>
<rect x="1173" y="474" width="66" height="40" rx="20" fill="#ECF6F1"/>
<text x="1206.0" y="502" font-size="18" font-weight="600" fill="#147A70" text-anchor="middle">T01</text>
<text x="1257" y="502" font-size="23" font-weight="550" fill="#172D43" text-anchor="start">첫 번째 변경</text>
<rect x="1173" y="531" width="66" height="40" rx="20" fill="#ECF6F1"/>
<text x="1206.0" y="559" font-size="18" font-weight="600" fill="#147A70" text-anchor="middle">T02</text>
<text x="1257" y="559" font-size="23" font-weight="550" fill="#172D43" text-anchor="start">다음 변경</text>
<rect x="1173" y="588" width="66" height="40" rx="20" fill="#ECF6F1"/>
<text x="1206.0" y="616" font-size="18" font-weight="600" fill="#147A70" text-anchor="middle">FIX</text>
<text x="1257" y="616" font-size="23" font-weight="550" fill="#172D43" text-anchor="start">수정·보완</text>
<text x="1161" y="695" font-size="23" font-weight="600" fill="#147A70" text-anchor="start">인계해도 작업 CL 유지</text>
<text x="1161" y="736" font-size="21" font-weight="450" fill="#566A7E" text-anchor="start">완료: 보고서 + pending CL</text>
<text x="1161" y="767" font-size="21" font-weight="450" fill="#566A7E" text-anchor="start">submit은 기존 절차에서</text>
<rect x="64" y="858" width="468" height="170" rx="24" fill="#FFFFFF" stroke="#D7E2EC" stroke-width="2"/>
<polyline points="110.0,887.8 123.5,893.2 121.7,908.5 110.0,920.2 98.3,908.5 96.5,893.2 110.0,887.8" fill="none" stroke="#147A70" stroke-width="3" stroke-linejoin="round" stroke-linecap="round"/>
<polyline points="102.8,904.0 108.2,909.4 118.1,897.7" fill="none" stroke="#147A70" stroke-width="3" stroke-linejoin="round" stroke-linecap="round"/>
<text x="146" y="917" font-size="27" font-weight="700" fill="#172D43" text-anchor="start">기존 변경 보존</text>
<text x="92" y="976" font-size="22" font-weight="450" fill="#566A7E" text-anchor="start">다른 작업의 파일을 가져오지 않음</text>
<rect x="566" y="858" width="468" height="170" rx="24" fill="#FFFFFF" stroke="#D7E2EC" stroke-width="2"/>
<polyline points="595.8,895.9 612.0,887.8 628.2,895.9 612.0,904.0 595.8,895.9" fill="none" stroke="#147A70" stroke-width="3" stroke-linejoin="round" stroke-linecap="round"/>
<polyline points="595.8,904.9 612.0,913.0 628.2,904.9" fill="none" stroke="#147A70" stroke-width="3" stroke-linejoin="round" stroke-linecap="round"/>
<polyline points="595.8,913.0 612.0,921.1 628.2,913.0" fill="none" stroke="#147A70" stroke-width="3" stroke-linejoin="round" stroke-linecap="round"/>
<text x="648" y="917" font-size="27" font-weight="700" fill="#172D43" text-anchor="start">필요한 정보만 조회</text>
<text x="594" y="976" font-size="22" font-weight="450" fill="#566A7E" text-anchor="start">요약 · 변경분 먼저, 원본은 보관</text>
<rect x="1068" y="858" width="468" height="170" rx="24" fill="#FFFFFF" stroke="#D7E2EC" stroke-width="2"/>
<polyline points="1100.5,904.9 1109.5,913.9 1127.5,893.2" fill="none" stroke="#147A70" stroke-width="5" stroke-linejoin="round" stroke-linecap="round"/>
<text x="1150" y="917" font-size="27" font-weight="700" fill="#172D43" text-anchor="start">오래된 검증 차단</text>
<text x="1096" y="976" font-size="22" font-weight="450" fill="#566A7E" text-anchor="start">현재 파일 상태와 검사 결과를 비교</text>
<text x="65" y="1071" font-size="27" font-weight="650" fill="#147A70" text-anchor="start">모델이 바뀌어도 파일 준비·CL·검증의 기준은 유지합니다.</text>
<polyline points="64.0,1110.0 1536.0,1110.0" fill="none" stroke="#D7E2EC" stroke-width="2" stroke-linejoin="round" stroke-linecap="round"/>
<text x="64" y="1157" font-size="23" font-weight="550" fill="#172D43" text-anchor="start">P4V·p4.exe 위에서 에이전트의 작업 절차를 일관되게 관리</text>
<text x="1536" y="1157" font-size="18" font-weight="500" fill="#566A7E" text-anchor="end">p4-harness</text>
</svg>
